<?xml version="1.0" encoding="utf-8"?>
<!-- Generator: Adobe Illustrator 21.1.0, SVG Export Plug-In . SVG Version: 6.00 Build 0)  -->
<svg version="1.1" id="Capa_1" xmlns="http://www.w3.org/2000/svg" xmlns:xlink="http://www.w3.org/1999/xlink" x="0px" y="0px"
	 viewBox="0 0 686.7 82.5" style="enable-background:new 0 0 686.7 82.5;" xml:space="preserve">
<g>
	<path d="M57.5,47.1c-0.5,3-1.2,5.9-2.1,8.9c-0.9,2.9-2.1,5.7-3.5,8.4c-1.4,2.6-3.1,5.1-5,7.4c-1.9,2.3-4,4.2-6.4,5.8
		c-2.4,1.6-5,2.9-7.9,3.7s-6,1.3-9.4,1.2c-3.2-0.1-6-0.6-8.5-1.6c-2.5-1-4.6-2.4-6.4-4.1c-1.8-1.7-3.3-3.7-4.5-6
		c-1.2-2.3-2.1-4.7-2.7-7.3c-0.6-2.6-1-5.3-1.1-8.1s0-5.6,0.4-8.3l1.8-11.7c0.4-2.9,1.1-5.9,2-8.8s2-5.7,3.4-8.4
		c1.3-2.6,2.9-5.1,4.8-7.4c1.8-2.3,3.9-4.2,6.2-5.9s4.9-2.9,7.7-3.8s5.9-1.3,9.3-1.2c3.2,0.1,6.1,0.6,8.6,1.6c2.5,1,4.7,2.3,6.6,4.1
		c1.9,1.7,3.5,3.7,4.7,6c1.2,2.3,2.2,4.7,2.9,7.3c0.7,2.6,1.1,5.3,1.2,8.1c0.1,2.8,0,5.6-0.3,8.4L57.5,47.1z M44,35.3
		c0.2-1.4,0.3-2.8,0.4-4.5c0.1-1.6,0.1-3.2,0-4.9c-0.1-1.6-0.3-3.2-0.7-4.8c-0.4-1.5-0.9-2.9-1.7-4.1c-0.8-1.2-1.8-2.2-3-3
		c-1.2-0.8-2.8-1.2-4.7-1.3c-2-0.1-3.8,0.2-5.3,0.9c-1.5,0.6-2.9,1.5-4.1,2.7c-1.2,1.2-2.2,2.5-3,4c-0.8,1.5-1.6,3.1-2.1,4.8
		c-0.6,1.7-1,3.4-1.4,5.2c-0.4,1.7-0.7,3.4-0.9,5l-1.8,11.9c-0.2,1.3-0.3,2.7-0.5,4.3c-0.1,1.6-0.2,3.2-0.2,4.9
		c0,1.7,0.2,3.3,0.5,4.9c0.3,1.6,0.8,3,1.5,4.2s1.6,2.3,2.8,3.1s2.7,1.2,4.6,1.3c2,0.1,3.8-0.2,5.3-0.9s3-1.5,4.2-2.7
		c1.2-1.1,2.3-2.5,3.2-4c0.9-1.5,1.7-3.2,2.3-4.9s1.2-3.4,1.6-5.2s0.7-3.4,1-5L44,35.3z"/>
	<path d="M106.4,51.4H94.7l-5.2,30H74.4L88.3,1.1l25.3,0.1c3.7,0.1,7.1,0.6,10.3,1.6c3.2,1,5.9,2.5,8.2,4.4c2.3,1.9,4,4.4,5.2,7.3
		c1.2,2.9,1.6,6.4,1.3,10.4c-0.2,2.8-0.8,5.4-1.7,7.8c-0.9,2.4-2.1,4.5-3.7,6.3c-1.5,1.9-3.3,3.5-5.4,4.9c-2.1,1.4-4.4,2.6-7,3.7
		l11.1,32.9v0.8h-16.1L106.4,51.4z M96.8,38.8l10.5,0.2c2,0,3.9-0.3,5.8-0.9c1.8-0.6,3.4-1.4,4.9-2.5c1.4-1.1,2.6-2.5,3.5-4.1
		c0.9-1.6,1.5-3.5,1.8-5.6c0.5-3.7-0.2-6.7-2-8.8c-1.8-2.1-4.6-3.3-8.3-3.4l-11.7-0.1L96.8,38.8z"/>
	<path d="M168.9,1.1H214l-2.2,12.5h-15.2l-9.6,55.3h15.2l-2.2,12.5h-45.1l2.2-12.5h14.8l9.6-55.3h-14.8L168.9,1.1z"/>
	<path d="M289.4,47.1c-0.5,3-1.2,5.9-2.1,8.9c-0.9,2.9-2.1,5.7-3.5,8.4c-1.4,2.6-3.1,5.1-5,7.4c-1.9,2.3-4,4.2-6.4,5.8
		c-2.4,1.6-5,2.9-7.9,3.7s-6,1.3-9.4,1.2c-3.2-0.1-6-0.6-8.5-1.6c-2.5-1-4.6-2.4-6.5-4.1c-1.8-1.7-3.3-3.7-4.5-6
		c-1.2-2.3-2.1-4.7-2.7-7.3c-0.6-2.6-1-5.3-1.1-8.1s0-5.6,0.4-8.3l1.8-11.7c0.4-2.9,1.1-5.9,2-8.8s2-5.7,3.4-8.4
		c1.3-2.6,2.9-5.1,4.8-7.4c1.8-2.3,3.9-4.2,6.2-5.9s4.9-2.9,7.7-3.8c2.8-0.9,5.9-1.3,9.3-1.2c3.2,0.1,6.1,0.6,8.6,1.6
		c2.5,1,4.7,2.3,6.6,4.1c1.9,1.7,3.5,3.7,4.7,6c1.2,2.3,2.2,4.7,2.9,7.3c0.7,2.6,1.1,5.3,1.2,8.1c0.1,2.8,0,5.6-0.3,8.4L289.4,47.1z
		 M275.9,35.3c0.2-1.4,0.3-2.8,0.4-4.5c0.1-1.6,0.1-3.2,0-4.9c-0.1-1.6-0.3-3.2-0.7-4.8c-0.4-1.5-0.9-2.9-1.7-4.1
		c-0.8-1.2-1.8-2.2-3-3c-1.2-0.8-2.8-1.2-4.7-1.3c-2-0.1-3.8,0.2-5.3,0.9c-1.5,0.6-2.9,1.5-4.1,2.7c-1.2,1.2-2.2,2.5-3,4
		c-0.8,1.5-1.6,3.1-2.1,4.8c-0.6,1.7-1,3.4-1.4,5.2c-0.4,1.7-0.7,3.4-0.9,5l-1.8,11.9c-0.2,1.3-0.3,2.7-0.5,4.3
		c-0.1,1.6-0.2,3.2-0.2,4.9c0,1.7,0.2,3.3,0.5,4.9c0.3,1.6,0.8,3,1.5,4.2s1.6,2.3,2.8,3.1s2.7,1.2,4.6,1.3c2,0.1,3.8-0.2,5.3-0.9
		c1.6-0.6,3-1.5,4.2-2.7c1.2-1.1,2.3-2.5,3.2-4c0.9-1.5,1.7-3.2,2.3-4.9s1.2-3.4,1.6-5.2s0.7-3.4,1-5L275.9,35.3z"/>
	<path d="M357.7,81.4h-14.7l-12.8-52.3L321,81.4h-15.2l13.9-80.3h14.9l12.6,52.1l9.1-52.1h15.2L357.7,81.4z"/>
	<path d="M427.9,60c0.3-1.9,0.1-3.5-0.6-4.9c-0.6-1.4-1.6-2.5-2.8-3.5s-2.6-1.8-4.1-2.5c-1.5-0.7-3.1-1.2-4.6-1.8
		c-2.9-0.9-5.7-2.1-8.5-3.5c-2.8-1.4-5.2-3.1-7.4-5.1c-2.1-2-3.8-4.3-5-7c-1.2-2.7-1.7-5.7-1.5-9.1c0.2-3.8,1.3-7.2,3.1-10
		c1.9-2.9,4.2-5.3,7.1-7.2c2.8-1.9,6-3.3,9.5-4.2c3.5-0.9,7-1.3,10.4-1.3c3.6,0.1,7,0.7,10.1,1.9c3.1,1.2,5.7,2.8,7.9,5
		c2.2,2.1,3.9,4.7,5.1,7.7c1.2,3,1.7,6.4,1.6,10.1l-14.7-0.1c0-1.8-0.2-3.5-0.6-5c-0.5-1.5-1.2-2.8-2.1-3.9
		c-0.9-1.1-2.1-1.9-3.5-2.5c-1.4-0.6-3.1-0.9-5-0.9c-1.6,0-3.2,0.2-4.8,0.6c-1.6,0.4-3.1,1.1-4.4,1.9s-2.4,1.9-3.4,3.3
		c-0.9,1.3-1.5,2.8-1.7,4.6c-0.2,1.9,0.1,3.5,0.9,4.8c0.8,1.3,2,2.4,3.4,3.3c1.4,0.9,2.9,1.7,4.6,2.3c1.7,0.6,3.2,1.1,4.5,1.6
		c2.9,1,5.7,2.2,8.3,3.7c2.6,1.5,5,3.3,6.9,5.3c2,2.1,3.5,4.4,4.6,7.1c1.1,2.7,1.5,5.7,1.3,9.1c-0.2,2.6-0.7,5-1.6,7.1
		c-0.9,2.1-2,4-3.5,5.7c-1.5,1.7-3.1,3.1-5,4.4s-3.9,2.3-6.1,3.1c-2.2,0.8-4.4,1.4-6.8,1.7c-2.4,0.4-4.7,0.5-7.1,0.5
		c-3.9-0.1-7.5-0.7-10.8-1.9c-3.3-1.2-6.2-2.9-8.7-5.2c-2.5-2.2-4.4-5-5.7-8.1c-1.3-3.2-2-6.8-1.8-10.8l14.8,0.1
		c-0.1,4.3,0.9,7.7,3.2,10c2.2,2.4,5.6,3.6,10,3.6c1.6,0,3.2-0.2,4.8-0.6s3.1-1,4.4-1.8c1.3-0.8,2.4-1.9,3.4-3.1
		C427,63.3,427.6,61.8,427.9,60z"/>
	<path d="M521.3,47.1c-0.5,3-1.2,5.9-2.1,8.9c-0.9,2.9-2.1,5.7-3.5,8.4c-1.4,2.6-3.1,5.1-5,7.4c-1.9,2.3-4,4.2-6.4,5.8
		c-2.4,1.6-5,2.9-7.9,3.7s-6,1.3-9.4,1.2c-3.2-0.1-6-0.6-8.5-1.6c-2.5-1-4.6-2.4-6.5-4.1c-1.8-1.7-3.3-3.7-4.5-6
		c-1.2-2.3-2.1-4.7-2.7-7.3c-0.6-2.6-1-5.3-1.1-8.1s0-5.6,0.4-8.3l1.8-11.7c0.4-2.9,1.1-5.9,2-8.8s2-5.7,3.4-8.4
		c1.3-2.6,2.9-5.1,4.8-7.4c1.8-2.3,3.9-4.2,6.2-5.9s4.9-2.9,7.7-3.8s5.9-1.3,9.3-1.2c3.2,0.1,6.1,0.6,8.6,1.6c2.5,1,4.7,2.3,6.6,4.1
		c1.9,1.7,3.5,3.7,4.7,6c1.2,2.3,2.2,4.7,2.9,7.3c0.7,2.6,1.1,5.3,1.2,8.1c0.1,2.8,0,5.6-0.3,8.4L521.3,47.1z M507.8,35.3
		c0.2-1.4,0.3-2.8,0.4-4.5c0.1-1.6,0.1-3.2,0-4.9c-0.1-1.6-0.3-3.2-0.7-4.8c-0.4-1.5-0.9-2.9-1.7-4.1c-0.8-1.2-1.8-2.2-3-3
		c-1.2-0.8-2.8-1.2-4.7-1.3c-2-0.1-3.8,0.2-5.3,0.9c-1.5,0.6-2.9,1.5-4.1,2.7c-1.2,1.2-2.2,2.5-3,4c-0.8,1.5-1.6,3.1-2.1,4.8
		c-0.6,1.7-1,3.4-1.4,5.2c-0.4,1.7-0.7,3.4-0.9,5l-1.8,11.9c-0.2,1.3-0.3,2.7-0.5,4.3c-0.1,1.6-0.2,3.2-0.2,4.9
		c0,1.7,0.2,3.3,0.5,4.9c0.3,1.6,0.8,3,1.5,4.2s1.6,2.3,2.8,3.1s2.7,1.2,4.6,1.3c2,0.1,3.8-0.2,5.3-0.9c1.6-0.6,3-1.5,4.2-2.7
		c1.2-1.1,2.3-2.5,3.2-4c0.9-1.5,1.7-3.2,2.3-4.9s1.2-3.4,1.6-5.2s0.7-3.4,1-5L507.8,35.3z"/>
	<path d="M593.4,48.1H560l-5.8,33.2h-15.2L553,1.1h52.8l-2.3,12.6H566l-3.8,21.8h33.4L593.4,48.1z"/>
	<path d="M684.4,13.7h-24l-11.7,67.6h-15.2l11.7-67.6h-23.7l2.2-12.6h62.9L684.4,13.7z"/>
</g>
</svg>
